<?xml version="1.0" encoding="utf-8"?>
<!-- Generator: Adobe Illustrator 25.4.1, SVG Export Plug-In . SVG Version: 6.00 Build 0)  -->
<svg version="1.1" id="Layer_1" xmlns="http://www.w3.org/2000/svg" xmlns:xlink="http://www.w3.org/1999/xlink" x="0px" y="0px"
	 viewBox="0 0 148.3 137.6" style="enable-background:new 0 0 148.3 137.6;" xml:space="preserve">
<style type="text/css">
	.st0{fill:#666666;}
</style>
<image style="display:none;overflow:visible;" width="200" height="200" xlink:href="C77C79B4F68750E2.png"  transform="matrix(0.7499 0 0 0.7499 138 137.2002)">
</image>
<g>
	<path class="st0" d="M32.4,50.8c-2.8,0-5.1,2.3-5.1,5.1c0,2.8,2.3,5.1,5.1,5.1c2.8,0,5.1-2.3,5.1-5.1
		C37.5,53.1,35.2,50.8,32.4,50.8z"/>
	<circle class="st0" cx="82.8" cy="55.7" r="5.5"/>
	<path class="st0" d="M128.5,0H19.8C8.9,0,0,8.9,0,19.8v64.5c0,11,8.9,19.8,19.8,19.8h38.4l13.1,30.7c0,0,0.9,2.7,3.1,2.7
		c0,0,0,0,0,0c2.2,0,3.1-2.7,3.1-2.7l13.1-30.7h38c11,0,19.8-8.9,19.8-19.8V19.8C148.3,8.9,139.5,0,128.5,0z M46.6,57
		c-0.1,11.8-12.2,12.1-12.2,12.1C29.6,69.1,27,66,27,66v2.1h-8.9V31.5c0,0,0,0,0,0v0c0.5,0.1,8.9,0,8.9,0v14
		c2.1-3.6,8.1-3.5,8.1-3.5C48.2,43.2,46.6,57,46.6,57z M62.2,43.1v25.1h-8.7V43.4c0-3.4-4.2-4.3-4.2-4.3v-8.8
		C63.2,30.9,62.2,43.1,62.2,43.1z M82.8,69.1c-8,0-14.6-6-14.6-13.4s6.5-13.4,14.6-13.4c8,0,14.6,6,14.6,13.4S90.9,69.1,82.8,69.1z
		 M130.4,69.1c0,0,0.1,12.7-12.8,12.7h-3.9v-8.2h2.4c0,0,5.4,0.5,5.4-7.9c0,0-1.1,3.4-8.7,3.4c0,0-10.8-0.8-10.8-11.3v-4
		c0,0,0.2-10.9,12.1-11.8c0,0,4.7-0.5,7.6,3.4v-2.7h8.8V69.1z"/>
	<circle class="st0" cx="116.6" cy="55.7" r="5.4"/>
</g>
</svg>
